<svg width="10" height="9" viewBox="0 0 10 9" fill="none" xmlns="http://www.w3.org/2000/svg">
<path d="M4.64416 0.422591C4.7058 0.232866 4.97421 0.232866 5.03586 0.422592L5.90339 3.09259C5.93096 3.17743 6.01003 3.23488 6.09924 3.23488H8.90664C9.10613 3.23488 9.18907 3.49015 9.02768 3.60741L6.75645 5.25756C6.68427 5.31 6.65407 5.40295 6.68164 5.4878L7.54918 8.15779C7.61082 8.34752 7.39367 8.50528 7.23228 8.38803L4.96105 6.73788C4.88887 6.68544 4.79114 6.68544 4.71896 6.73788L2.44773 8.38803C2.28634 8.50528 2.06919 8.34752 2.13084 8.15779L2.99837 5.4878C3.02594 5.40295 2.99574 5.31 2.92356 5.25756L0.652328 3.60741C0.490938 3.49015 0.573882 3.23488 0.773371 3.23488H3.58077C3.66998 3.23488 3.74905 3.17743 3.77662 3.09259L4.64416 0.422591Z" fill="#F1CC4A"/>
</svg>
